Coordinates
version=1
nRows=39
nColumns=30
inDegrees=yes

Units are S.I. units (second, meters, Newtons, ...)
Angles are in degrees.

endheader
time	floatyaw	floatroll	floatpitch	floatx	floaty	floatz	pro_sup_l	deviation_l	flexion_l	cmc_flexion_l	cmc_abduction_l	mp_flexion_l	ip_flexion_l	2mcp_flexion_l	2mcp_abduction_l	2pm_flexion_l	2md_flexion_l	3mcp_flexion_l	3mcp_abduction_l	3pm_flexion_l	3md_flexion_l	4mcp_flexion_l	4mcp_abduction_l	4pm_flexion_l	4md_flexion_l	5mcp_flexion_l	5mcp_abduction_l	5pm_flexion_l	5md_flexion_l
11.233333	-160.147433	-5.066637	-73.570646	-0.050676	-0.082717	-0.090557	108.310106	34.903185	-6.952263	15.936945	38.321925	-20.715305	-53.236455	17.384160	9.559012	53.695452	39.218316	34.455493	5.918918	46.896312	36.246590	35.278275	-5.066185	44.263907	48.767015	11.291334	-13.574329	57.950285	57.965634
11.266667	-160.147433	-5.066637	-73.570646	-0.050676	-0.082717	-0.090557	108.310106	34.903185	-6.952263	15.936945	38.321925	-20.715305	-53.236455	17.384160	9.559012	53.695452	39.218316	34.455493	5.918918	46.896312	36.246590	35.278275	-5.066185	44.263907	48.767015	11.291334	-13.574329	57.950285	57.965634
11.300000	-160.147433	-5.066637	-73.570646	-0.050676	-0.082717	-0.090557	108.310106	34.903185	-6.952263	15.936945	38.321925	-20.715305	-53.236455	17.384160	9.559012	53.695452	39.218316	34.455493	5.918918	46.896312	36.246590	35.278275	-5.066185	44.263907	48.767015	11.291334	-13.574329	57.950285	57.965634
11.333333	-160.147433	-5.066637	-73.570646	-0.050676	-0.082717	-0.090557	108.310106	34.903185	-6.952263	15.936945	38.321925	-20.715305	-53.236455	17.384160	9.559012	53.695452	39.218316	34.455493	5.918918	46.896312	36.246590	35.278275	-5.066185	44.263907	48.767015	11.291334	-13.574329	57.950285	57.965634
11.366667	-160.147433	-5.066637	-73.570646	-0.050676	-0.082717	-0.090557	108.310106	34.903185	-6.952263	15.936945	38.321925	-20.715305	-53.236455	17.384160	9.559012	53.695452	39.218316	34.455493	5.918918	46.896312	36.246590	35.278275	-5.066185	44.263907	48.767015	11.291334	-13.574329	57.950285	57.965634
11.400000	-160.147433	-5.066637	-73.570646	-0.050676	-0.082717	-0.090557	108.310106	34.903185	-6.952263	15.936945	38.321925	-20.715305	-53.236455	17.384160	9.559012	53.695452	39.218316	34.455493	5.918918	46.896312	36.246590	35.278275	-5.066185	44.263907	48.767015	11.291334	-13.574329	57.950285	57.965634
11.433333	-160.147433	-5.066637	-73.570646	-0.050676	-0.082717	-0.090557	108.310106	34.903185	-6.952263	15.936945	38.321925	-20.715305	-53.236455	17.384160	9.559012	53.695452	39.218316	34.455493	5.918918	46.896312	36.246590	35.278275	-5.066185	44.263907	48.767015	11.291334	-13.574329	57.950285	57.965634
11.466667	-160.147433	-5.066637	-73.570646	-0.050676	-0.082717	-0.090557	108.310106	34.903185	-6.952263	15.936945	38.321925	-20.715305	-53.236455	17.384160	9.559012	53.695452	39.218316	34.455493	5.918918	46.896312	36.246590	35.278275	-5.066185	44.263907	48.767015	11.291334	-13.574329	57.950285	57.965634
11.500000	-160.147433	-5.066637	-73.570646	-0.050676	-0.082717	-0.090557	108.310106	34.903185	-6.952263	15.936945	38.321925	-20.715305	-53.236455	17.384160	9.559012	53.695452	39.218316	34.455493	5.918918	46.896312	36.246590	35.278275	-5.066185	44.263907	48.767015	11.291334	-13.574329	57.950285	57.965634
11.533333	-160.147433	-5.066637	-73.570646	-0.050676	-0.082717	-0.090557	108.310106	34.903185	-6.952263	15.936945	38.321925	-20.715305	-53.236455	17.384160	9.559012	53.695452	39.218316	34.455493	5.918918	46.896312	36.246590	35.278275	-5.066185	44.263907	48.767015	11.291334	-13.574329	57.950285	57.965634
11.566667	-160.147433	-5.066637	-73.570646	-0.050676	-0.082717	-0.090557	108.310106	34.903185	-6.952263	15.936945	38.321925	-20.715305	-53.236455	17.384160	9.559012	53.695452	39.218316	34.455493	5.918918	46.896312	36.246590	35.278275	-5.066185	44.263907	48.767015	11.291334	-13.574329	57.950285	57.965634
11.600000	-160.147433	-5.066637	-73.570646	-0.050676	-0.082717	-0.090557	108.310106	34.903185	-6.952263	15.936945	38.321925	-20.715305	-53.236455	17.384160	9.559012	53.695452	39.218316	34.455493	5.918918	46.896312	36.246590	35.278275	-5.066185	44.263907	48.767015	11.291334	-13.574329	57.950285	57.965634
11.633333	-160.147433	-5.066637	-73.570646	-0.050676	-0.082717	-0.090557	108.310106	34.903185	-6.952263	15.936945	38.321925	-20.715305	-53.236455	17.384160	9.559012	53.695452	39.218316	34.455493	5.918918	46.896312	36.246590	35.278275	-5.066185	44.263907	48.767015	11.291334	-13.574329	57.950285	57.965634
11.666667	-160.147433	-5.066637	-73.570646	-0.050676	-0.082717	-0.090557	108.310106	34.903185	-6.952263	15.936945	38.321925	-20.715305	-53.236455	17.384160	9.559012	53.695452	39.218316	34.455493	5.918918	46.896312	36.246590	35.278275	-5.066185	44.263907	48.767015	11.291334	-13.574329	57.950285	57.965634
11.700000	-160.147433	-5.066637	-73.570646	-0.050676	-0.082717	-0.090557	108.310106	34.903185	-6.952263	15.936945	38.321925	-20.715305	-53.236455	17.384160	9.559012	53.695452	39.218316	34.455493	5.918918	46.896312	36.246590	35.278275	-5.066185	44.263907	48.767015	11.291334	-13.574329	57.950285	57.965634
11.733333	-160.147433	-5.066637	-73.570646	-0.050676	-0.082717	-0.090557	108.310106	34.903185	-6.952263	15.936945	38.321925	-20.715305	-53.236455	17.384160	9.559012	53.695452	39.218316	34.455493	5.918918	46.896312	36.246590	35.278275	-5.066185	44.263907	48.767015	11.291334	-13.574329	57.950285	57.965634
11.766667	-160.147433	-5.066637	-73.570646	-0.050676	-0.082717	-0.090557	108.310106	34.903185	-6.952263	15.936945	38.321925	-20.715305	-53.236455	17.384160	9.559012	53.695452	39.218316	34.455493	5.918918	46.896312	36.246590	35.278275	-5.066185	44.263907	48.767015	11.291334	-13.574329	57.950285	57.965634
11.800000	-160.147433	-5.066637	-73.570646	-0.050676	-0.082717	-0.090557	108.310106	34.903185	-6.952263	15.936945	38.321925	-20.715305	-53.236455	17.384160	9.559012	53.695452	39.218316	34.455493	5.918918	46.896312	36.246590	35.278275	-5.066185	44.263907	48.767015	11.291334	-13.574329	57.950285	57.965634
11.833333	-160.147433	-5.066637	-73.570646	-0.050676	-0.082717	-0.090557	108.310106	34.903185	-6.952263	15.936945	38.321925	-20.715305	-53.236455	17.384160	9.559012	53.695452	39.218316	34.455493	5.918918	46.896312	36.246590	35.278275	-5.066185	44.263907	48.767015	11.291334	-13.574329	57.950285	57.965634
11.866667	-160.147433	-5.066637	-73.570646	-0.050676	-0.082717	-0.090557	108.310106	34.903185	-6.952263	15.936945	38.321925	-20.715305	-53.236455	17.384160	9.559012	53.695452	39.218316	34.455493	5.918918	46.896312	36.246590	35.278275	-5.066185	44.263907	48.767015	11.291334	-13.574329	57.950285	57.965634
11.900000	-160.147433	-5.066637	-73.570646	-0.050676	-0.082717	-0.090557	108.310106	34.903185	-6.952263	15.936945	38.321925	-20.715305	-53.236455	17.384160	9.559012	53.695452	39.218316	34.455493	5.918918	46.896312	36.246590	35.278275	-5.066185	44.263907	48.767015	11.291334	-13.574329	57.950285	57.965634
11.933333	-160.147433	-5.066637	-73.570646	-0.050676	-0.082717	-0.090557	108.310106	34.903185	-6.952263	15.936945	38.321925	-20.715305	-53.236455	17.384160	9.559012	53.695452	39.218316	34.455493	5.918918	46.896312	36.246590	35.278275	-5.066185	44.263907	48.767015	11.291334	-13.574329	57.950285	57.965634
11.966667	-160.147433	-5.066637	-73.570646	-0.050676	-0.082717	-0.090557	108.310106	34.903185	-6.952263	15.936945	38.321925	-20.715305	-53.236455	17.384160	9.559012	53.695452	39.218316	34.455493	5.918918	46.896312	36.246590	35.278275	-5.066185	44.263907	48.767015	11.291334	-13.574329	57.950285	57.965634
12.000000	-160.147433	-5.066637	-73.570646	-0.050532	-0.081385	-0.094296	108.658118	35.248306	-5.917681	21.131943	38.731360	-21.383697	-55.786987	12.553173	8.839066	58.195584	43.368680	32.329125	5.738746	44.477959	36.226082	32.354613	-4.924608	42.603068	49.817168	7.956886	-13.728435	56.924552	58.474057
12.033333	-160.147433	-5.066637	-73.570646	-0.050532	-0.081385	-0.094296	108.658118	35.248306	-5.917681	21.131943	38.731360	-21.383697	-55.786987	12.553173	8.839066	58.195584	43.368680	32.329125	5.738746	44.477959	36.226082	32.354613	-4.924608	42.603068	49.817168	7.956886	-13.728435	56.924552	58.474057
12.066667	-160.147433	-5.066637	-73.570646	-0.050532	-0.081385	-0.094296	108.658118	35.248306	-5.917681	21.131943	38.731360	-21.383697	-55.786987	12.553173	8.839066	58.195584	43.368680	32.329125	5.738746	44.477959	36.226082	32.354613	-4.924608	42.603068	49.817168	7.956886	-13.728435	56.924552	58.474057
12.100000	-160.147433	-5.066637	-73.570646	-0.050532	-0.081385	-0.094296	108.658118	35.248306	-5.917681	21.131943	38.731360	-21.383697	-55.786987	12.553173	8.839066	58.195584	43.368680	32.329125	5.738746	44.477959	36.226082	32.354613	-4.924608	42.603068	49.817168	7.956886	-13.728435	56.924552	58.474057
12.133333	-160.147433	-5.066637	-73.570646	-0.050532	-0.081385	-0.094296	108.658118	35.248306	-5.917681	21.131943	38.731360	-21.383697	-55.786987	12.553173	8.839066	58.195584	43.368680	32.329125	5.738746	44.477959	36.226082	32.354613	-4.924608	42.603068	49.817168	7.956886	-13.728435	56.924552	58.474057
12.166667	-160.147433	-5.066637	-73.570646	-0.050532	-0.081385	-0.094296	108.658118	35.248306	-5.917681	21.131943	38.731360	-21.383697	-55.786987	12.553173	8.839066	58.195584	43.368680	32.329125	5.738746	44.477959	36.226082	32.354613	-4.924608	42.603068	49.817168	7.956886	-13.728435	56.924552	58.474057
12.200000	-160.147433	-5.066637	-73.570646	-0.050532	-0.081385	-0.094296	108.658118	35.248306	-5.917681	21.131943	38.731360	-21.383697	-55.786987	12.553173	8.839066	58.195584	43.368680	32.329125	5.738746	44.477959	36.226082	32.354613	-4.924608	42.603068	49.817168	7.956886	-13.728435	56.924552	58.474057
12.233333	-160.147433	-5.066637	-73.570646	-0.050532	-0.081385	-0.094296	108.658118	35.248306	-5.917681	21.131943	38.731360	-21.383697	-55.786987	12.553173	8.839066	58.195584	43.368680	32.329125	5.738746	44.477959	36.226082	32.354613	-4.924608	42.603068	49.817168	7.956886	-13.728435	56.924552	58.474057
12.266667	-160.147433	-5.066637	-73.570646	-0.050532	-0.081385	-0.094296	108.658118	35.248306	-5.917681	21.131943	38.731360	-21.383697	-55.786987	12.553173	8.839066	58.195584	43.368680	32.329125	5.738746	44.477959	36.226082	32.354613	-4.924608	42.603068	49.817168	7.956886	-13.728435	56.924552	58.474057
12.300000	-160.147433	-5.066637	-73.570646	-0.050532	-0.081385	-0.094296	108.658118	35.248306	-5.917681	21.131943	38.731360	-21.383697	-55.786987	12.553173	8.839066	58.195584	43.368680	32.329125	5.738746	44.477959	36.226082	32.354613	-4.924608	42.603068	49.817168	7.956886	-13.728435	56.924552	58.474057
12.333333	-160.147433	-5.066637	-73.570646	-0.050532	-0.081385	-0.094296	108.658118	35.248306	-5.917681	21.131943	38.731360	-21.383697	-55.786987	12.553173	8.839066	58.195584	43.368680	32.329125	5.738746	44.477959	36.226082	32.354613	-4.924608	42.603068	49.817168	7.956886	-13.728435	56.924552	58.474057
12.366667	-160.147433	-5.066637	-73.570646	-0.050532	-0.081385	-0.094296	108.658118	35.248306	-5.917681	21.131943	38.731360	-21.383697	-55.786987	12.553173	8.839066	58.195584	43.368680	32.329125	5.738746	44.477959	36.226082	32.354613	-4.924608	42.603068	49.817168	7.956886	-13.728435	56.924552	58.474057
12.400000	-160.147433	-5.066637	-73.570646	-0.050532	-0.081385	-0.094296	108.658118	35.248306	-5.917681	21.131943	38.731360	-21.383697	-55.786987	12.553173	8.839066	58.195584	43.368680	32.329125	5.738746	44.477959	36.226082	32.354613	-4.924608	42.603068	49.817168	7.956886	-13.728435	56.924552	58.474057
12.433333	-160.147433	-5.066637	-73.570646	-0.050532	-0.081385	-0.094296	108.658118	35.248306	-5.917681	21.131943	38.731360	-21.383697	-55.786987	12.553173	8.839066	58.195584	43.368680	32.329125	5.738746	44.477959	36.226082	32.354613	-4.924608	42.603068	49.817168	7.956886	-13.728435	56.924552	58.474057
12.466667	-160.147433	-5.066637	-73.570646	-0.050532	-0.081385	-0.094296	108.658118	35.248306	-5.917681	21.131943	38.731360	-21.383697	-55.786987	12.553173	8.839066	58.195584	43.368680	32.329125	5.738746	44.477959	36.226082	32.354613	-4.924608	42.603068	49.817168	7.956886	-13.728435	56.924552	58.474057
12.500000	-160.147433	-5.066637	-73.570646	-0.050532	-0.081385	-0.094296	108.658118	35.248306	-5.917681	21.131943	38.731360	-21.383697	-55.786987	12.553173	8.839066	58.195584	43.368680	32.329125	5.738746	44.477959	36.226082	32.354613	-4.924608	42.603068	49.817168	7.956886	-13.728435	56.924552	58.474057
